<svg width="19" height="19" viewBox="0 0 19 19" fill="none" xmlns="http://www.w3.org/2000/svg">
<path d="M1.6875 18.9524C1.6875 18.9524 0.125 18.9524 0.125 17.3899C0.125 15.8274 1.6875 11.1399 9.5 11.1399C17.3125 11.1399 18.875 15.8274 18.875 17.3899C18.875 18.9524 17.3125 18.9524 17.3125 18.9524H1.6875ZM9.5 9.57739C10.7432 9.57739 11.9355 9.08353 12.8146 8.20446C13.6936 7.32538 14.1875 6.13309 14.1875 4.88989C14.1875 3.64669 13.6936 2.45441 12.8146 1.57533C11.9355 0.696253 10.7432 0.202393 9.5 0.202393C8.2568 0.202393 7.06451 0.696253 6.18544 1.57533C5.30636 2.45441 4.8125 3.64669 4.8125 4.88989C4.8125 6.13309 5.30636 7.32538 6.18544 8.20446C7.06451 9.08353 8.2568 9.57739 9.5 9.57739V9.57739Z" fill="#838383"/>
</svg>
