<svg width="21" height="23" viewBox="0 0 21 23" fill="none" xmlns="http://www.w3.org/2000/svg">
<path d="M0.387506 8.2288C0.849378 6.80265 1.60811 5.49051 2.61376 4.3788C2.69688 4.28694 2.80542 4.22186 2.9256 4.19181C3.04579 4.16176 3.17219 4.16811 3.28876 4.21005L5.68626 5.06755C5.85693 5.12849 6.03882 5.1516 6.21932 5.13526C6.39981 5.11892 6.5746 5.06352 6.73156 4.97292C6.88851 4.88231 7.02389 4.75866 7.12831 4.61052C7.23272 4.46239 7.30368 4.29333 7.33626 4.11505L7.79251 1.60755C7.8146 1.48548 7.87252 1.37276 7.95889 1.28372C8.04526 1.19468 8.15617 1.13335 8.27751 1.10755C9.74233 0.795531 11.2564 0.795531 12.7213 1.10755C12.8426 1.13335 12.9535 1.19468 13.0399 1.28372C13.1262 1.37276 13.1842 1.48548 13.2063 1.60755L13.6638 4.11505C13.6963 4.29333 13.7673 4.46239 13.8717 4.61052C13.9761 4.75866 14.1115 4.88231 14.2685 4.97292C14.4254 5.06352 14.6002 5.11892 14.7807 5.13526C14.9612 5.1516 15.1431 5.12849 15.3138 5.06755L17.7125 4.21005C17.829 4.16853 17.9552 4.16252 18.0752 4.19279C18.1951 4.22305 18.3034 4.28822 18.3863 4.38005C19.3913 5.49151 20.1496 6.8032 20.6113 8.2288C20.6494 8.34655 20.6516 8.47297 20.6178 8.59203C20.584 8.71108 20.5156 8.81742 20.4213 8.89755L18.4775 10.5475C18.3394 10.6649 18.2285 10.8109 18.1524 10.9753C18.0764 11.1398 18.037 11.3188 18.037 11.5C18.037 11.6813 18.0764 11.8603 18.1524 12.0248C18.2285 12.1892 18.3394 12.3352 18.4775 12.4525L20.4213 14.1025C20.5156 14.1827 20.584 14.289 20.6178 14.4081C20.6516 14.5271 20.6494 14.6535 20.6113 14.7713C20.1498 16.1973 19.3914 17.5095 18.3863 18.6213C18.3031 18.7132 18.1946 18.7782 18.0744 18.8083C17.9542 18.8383 17.8278 18.832 17.7113 18.79L15.3138 17.9325C15.1431 17.8716 14.9612 17.8485 14.7807 17.8648C14.6002 17.8812 14.4254 17.9366 14.2685 18.0272C14.1115 18.1178 13.9761 18.2414 13.8717 18.3896C13.7673 18.5377 13.6963 18.7068 13.6638 18.885L13.205 21.3938C13.1828 21.5155 13.1249 21.6278 13.0388 21.7166C12.9527 21.8054 12.8422 21.8666 12.7213 21.8925C11.2564 22.2046 9.74232 22.2046 8.27751 21.8925C8.15617 21.8667 8.04526 21.8054 7.95889 21.7164C7.87252 21.6273 7.8146 21.5146 7.79251 21.3925L7.33626 18.885C7.30368 18.7068 7.23272 18.5377 7.12831 18.3896C7.02389 18.2414 6.88851 18.1178 6.73156 18.0272C6.5746 17.9366 6.39981 17.8812 6.21932 17.8648C6.03882 17.8485 5.85693 17.8716 5.68626 17.9325L3.28751 18.79C3.17099 18.8316 3.04477 18.8376 2.92483 18.8073C2.80489 18.777 2.69663 18.7119 2.61376 18.62C1.60868 17.5086 0.850382 16.1969 0.388756 14.7713C0.350652 14.6535 0.348367 14.5271 0.382192 14.4081C0.416017 14.289 0.484429 14.1827 0.578756 14.1025L2.52251 12.4525C2.66059 12.3352 2.7715 12.1892 2.84757 12.0248C2.92364 11.8603 2.96303 11.6813 2.96303 11.5C2.96303 11.3188 2.92364 11.1398 2.84757 10.9753C2.7715 10.8109 2.66059 10.6649 2.52251 10.5475L0.578756 8.89755C0.484429 8.81742 0.416017 8.71108 0.382192 8.59203C0.348367 8.47297 0.350652 8.34655 0.388756 8.2288H0.387506ZM8.00001 11.5C8.00001 12.1631 8.2634 12.799 8.73224 13.2678C9.20108 13.7367 9.83696 14 10.5 14C11.163 14 11.7989 13.7367 12.2678 13.2678C12.7366 12.799 13 12.1631 13 11.5C13 10.837 12.7366 10.2011 12.2678 9.73228C11.7989 9.26344 11.163 9.00005 10.5 9.00005C9.83696 9.00005 9.20108 9.26344 8.73224 9.73228C8.2634 10.2011 8.00001 10.837 8.00001 11.5V11.5Z" fill="#838383"/>
</svg>
