<svg width="25" height="21" viewBox="0 0 25 21" fill="none" xmlns="http://www.w3.org/2000/svg">
<path d="M12.5 15.4004H4.99995V9.15039H2.49995V19.1504C2.49995 19.8418 3.05855 20.4004 3.74995 20.4004H13.75C14.4414 20.4004 15 19.8418 15 19.1504V9.15039H12.5V15.4004ZM24.789 5.95508L21.457 0.955078C21.2226 0.607422 20.832 0.400391 20.414 0.400391H4.58589C4.16792 0.400391 3.7773 0.607422 3.54683 0.955078L0.214797 5.95508C-0.33989 6.78711 0.25386 7.90039 1.25386 7.90039H23.75C24.746 7.90039 25.3398 6.78711 24.789 5.95508ZM20 19.7754C20 20.1191 20.2812 20.4004 20.625 20.4004H21.875C22.2187 20.4004 22.5 20.1191 22.5 19.7754V9.15039H20V19.7754Z" fill="#838383"/>
</svg>
